<svg width="153" height="40" viewBox="0 0 153 40" fill="none" xmlns="http://www.w3.org/2000/svg">
<path d="M33.4155 13.2138C34.386 11.4719 35.7797 9.63073 37.9562 9.58533C37.4326 10.753 36.1527 12.0007 35.0619 12.6565C34.8423 12.7887 33.5437 13.4161 33.4155 13.2138Z" fill="#1D1813"/>
<path d="M33.3925 16.4835C34.2984 15.8097 35.3636 15.2652 36.5072 15.1562C36.7841 15.129 38.9138 15.0825 38.771 15.5713C37.2669 16.6765 35.1912 16.9625 33.3925 16.4835Z" fill="#1D1813"/>
<path d="M16.8604 32.8644C16.188 33.8955 15.3172 34.7625 14.0327 34.8809C12.7452 34.9999 13.4434 34.3133 14.0704 33.78C14.6974 33.2467 15.9987 32.7582 16.8604 32.8644Z" fill="#1D1813"/>
<path d="M38.6004 36.7875C38.1193 39.7925 34.4434 40.9785 32.0665 39.0889C31.6682 38.7718 31.171 37.9197 30.9838 37.8042C30.5759 37.5542 29.7996 37.5178 29.3023 37.3138C27.2139 36.4583 26.1152 33.7678 24.7301 32.2015C23.9729 31.3455 23.6867 31.7946 22.736 31.441C22.2895 31.2762 21.9303 30.8185 21.6442 30.7364C21.3315 30.6472 20.2239 30.7815 19.7435 30.7429C16.2695 30.4617 13.0408 27.4687 9.69256 26.385C6.71171 25.4208 4.46072 27.0117 1.75533 24.6725C-2.18303 21.2678 1.39947 14.0021 3.8091 10.5793C6.98984 6.06056 15.4366 -1.26051 21.4451 0.186104C27.0544 1.53608 25.198 7.26874 26.5081 11.1894C27.504 14.1715 30.0936 16.6762 30.3467 19.8688C30.3866 20.3679 30.2211 21.4347 30.3337 21.7852C30.4143 22.0375 30.9509 22.403 31.1288 22.7867C31.6881 23.9914 31.0681 24.0423 32.3401 25.3449C33.9557 26.9984 36.3147 28.238 36.7057 30.8008C36.7712 31.2313 36.6508 32.2047 36.7271 32.4729C36.7794 32.655 37.5882 33.2926 37.7833 33.5484C38.3884 34.3438 38.7592 35.7987 38.6017 36.7879L38.6004 36.7875ZM34.3163 38.5219C36.2613 39.0086 37.9487 37.2373 37.2446 35.3188C36.7338 36.4599 35.8818 37.6125 34.8048 38.302C34.6135 38.4246 34.3609 38.3187 34.3159 38.5232L34.3163 38.5219ZM32.7287 37.5281C34.8798 37.7366 36.7529 36.0548 36.4347 33.8206L35.1005 35.6947C34.4157 36.4376 33.5555 36.9627 32.7287 37.5281ZM31.2841 30.1647L31.945 27.7062C31.9839 27.5614 31.9096 26.6756 31.6818 26.5677L31.4555 27.8233L30.4706 28.9504L30.906 26.7892C30.8194 26.5596 30.0242 27.9467 29.9134 28.088C29.135 29.0837 28.1857 29.9667 27.0483 30.5304C27.823 30.7957 28.6144 30.4629 29.3733 30.3679C29.4111 30.4236 28.4766 31.1454 28.3493 31.2211C28.0595 31.3915 27.5143 31.2331 27.6827 31.6256C28.5718 31.7519 29.4228 31.5847 30.2603 31.3141L29.7522 31.8934L28.2015 32.6144C28.7099 33.0693 30.7807 32.3077 30.9131 32.3459C31.5418 32.5281 30.0214 33.28 29.9089 33.3325C29.8175 33.3751 28.6927 33.6372 29.3828 33.7874C30.1875 33.9624 31.1702 33.5654 31.9628 33.478L31.5351 34.0019L30.0358 34.8135C30.925 35.088 31.7923 34.9507 32.6431 34.6567C32.844 35.1248 30.7884 35.8776 30.4317 35.9889C33.5341 37.6578 36.7135 33.6486 35.3528 30.6802C35.2261 31.1463 35.2304 31.6132 35.0355 32.0781C34.8281 32.5739 34.3778 32.8796 34.1358 33.3448C33.8599 33.1927 34.0062 33.105 34.0556 32.9317C34.2893 32.0996 34.7446 31.1914 34.4568 30.2984C34.1556 30.9943 33.9682 32.1477 33.0216 32.1926C33.5436 31.2595 33.7617 30.1669 33.7072 29.1012L32.8467 30.8213C32.6594 31.0191 32.4726 31.3851 32.1354 31.2438C32.6477 30.2454 33.043 28.9552 32.694 27.8336C32.5592 28.7277 32.2062 29.8127 31.2831 30.163L31.2841 30.1647ZM26.0077 31.7479C26.6877 33.1616 27.6955 34.6029 28.9853 35.5314C28.5859 34.8308 28.0531 34.0105 27.5544 33.3817C27.1144 32.8269 26.5572 32.1981 26.0077 31.7479ZM29.9632 23.4025L29.4452 25.3294C29.3701 25.6085 28.1925 27.2453 27.9181 27.5551C26.7569 28.8601 25.1499 29.6103 23.5604 30.2369C26.8954 30.7701 30.6863 27.4527 30.3156 24.0393C30.2898 23.806 30.2744 23.386 29.9632 23.4025ZM26.3938 18.1051C26.3498 18.2686 25.5821 19.495 25.4135 19.7191C25.1014 20.1371 24.5865 20.6619 24.0917 20.836C24.9479 18.8556 25.9744 17.2981 26.1737 15.0867C26.1894 14.9114 26.2019 14.3237 26.0097 14.2267L25.456 16.2865C25.2084 17.2074 24.0367 18.7319 23.2881 19.3566C23.1338 19.4849 23.1953 19.6808 22.8765 19.513C23.7688 17.4995 25.1004 15.2102 25.3344 12.9867C25.3602 12.7472 25.3351 12.4214 25.1072 12.2766C24.8651 14.4723 23.4668 16.8876 21.662 18.1931C22.7727 15.7437 23.9721 13.7395 24.5755 11.0649C24.6121 10.9023 24.8096 10.5976 24.568 10.5673C23.7046 12.946 22.2934 15.0588 20.6812 16.9854C18.6174 19.4509 16.1573 21.9999 13.361 23.5975C13.4106 23.8215 13.6893 23.6553 13.8243 23.6201C15.0382 23.3077 16.7031 22.5545 17.8055 21.9402C18.0003 21.8313 19.2933 20.7366 19.4718 21.0279C18.2861 22.7636 16.4738 23.8107 14.6281 24.7164C16.8218 24.7611 18.4844 23.2097 20.3338 22.4331C20.4416 22.3878 20.6425 22.1552 20.8191 22.3847C20.8678 22.4476 19.8742 23.4584 19.7593 23.5673C18.6739 24.6062 17.3992 25.203 16.0469 25.8075C16.9732 25.6732 17.9745 25.4407 18.8498 25.109C19.1961 24.9779 21.5541 23.6734 21.6956 23.9007C20.737 25.2427 19.2147 25.9485 17.8033 26.7039C18.5156 26.7659 19.2933 26.4894 19.9646 26.2585C20.3497 26.1263 22.2586 25.1392 22.439 25.3811C21.6043 26.289 20.5953 27.0436 19.4454 27.4999C19.9237 27.6419 20.7535 27.3679 21.2873 27.1814C22.109 26.8953 22.8382 26.4064 23.6633 26.1339C23.4931 26.8149 22.4364 27.5667 21.8304 27.9261C21.1272 28.3451 20.2327 28.589 19.4875 28.9355C20.5903 29.371 21.9573 29.0197 23.0339 28.6449C26.2099 27.5405 28.849 24.5378 28.9767 21.1066L28.7278 19.5119C28.3515 21.055 27.5929 22.8208 26.1824 23.6732C26.9294 21.8232 27.9384 20.0602 27.8486 17.9952C27.6269 17.9018 27.6407 18.2644 27.5925 18.4224C27.1609 19.8369 26.6789 21.3432 25.2085 21.9888C26.0666 20.3094 27.0064 18.5436 27.0404 16.6071C27.0436 16.4627 27.1107 16.1972 26.9121 16.1769L26.3938 18.1051ZM19.8989 15.7296C22.3136 12.2398 27.1297 5.32632 22.1398 2.0865L22.9338 3.47931C24.2793 7.50194 19.7948 13.8132 17.128 16.6802C14.0599 19.9784 10.0773 22.8416 5.63533 23.8629L4.11007 24.0438C8.21015 25.3026 12.1806 22.7182 15.306 20.3426L14.3796 21.6605C17.2493 19.8646 19.7126 17.3406 21.3898 14.4186C21.2869 14.1647 20.1804 15.8019 19.8989 15.7296ZM10.4116 25.016L17.871 28.575L15.7033 26.9634C14.3538 26.1771 12.8882 25.3242 11.3423 24.9769C11.1458 24.933 10.539 24.7965 10.4116 25.016ZM12.7159 5.83511C12.7972 5.44236 13.282 5.15166 13.5984 4.92994C15.4665 3.61715 18.1179 2.20308 20.4619 2.49011C20.4967 2.23307 19.8152 2.16784 19.6427 2.14599C16.5044 1.76218 12.0921 4.55187 9.78888 6.51756C6.53012 9.29913 1.13911 15.8197 2.08906 20.3264C2.22934 20.9934 2.67604 21.9587 3.35788 22.0654C2.15916 19.848 3.61312 17.1727 4.80907 15.2289C5.06222 14.8179 5.3796 14.1521 5.82114 13.9638C4.81783 15.6899 4.02849 17.4161 4.16291 19.4688L4.39855 20.8478C4.43561 19.7652 4.82033 18.7428 5.26534 17.7721C5.58285 17.0792 7.00517 15.1531 6.99124 14.7007C6.98376 14.4367 6.74253 14.0019 6.69918 13.6271C6.27544 9.89626 9.8627 7.16112 13.2496 9.10398C14.6907 7.48487 16.7263 6.2439 18.7859 5.53488C18.7134 5.33748 18.3339 5.42269 18.1661 5.43629C16.4093 5.57099 14.688 6.59255 13.157 7.37864C14.2617 6.03431 16.1697 4.82761 17.8062 4.22778C17.8566 4.20992 19.1304 4.05729 18.6014 3.84907C16.472 4.12782 14.563 4.74888 12.7155 5.83644L12.7159 5.83511ZM15.3161 12.0843L18.282 10.599C17.2823 10.7194 15.8633 11.195 15.3161 12.0843ZM19.1121 6.97508C17.6526 7.02823 14.7783 8.00819 13.915 9.19197C13.6736 9.52204 13.8624 9.97694 14.2012 9.86804C14.3872 9.80803 15.3178 8.99975 15.6189 8.81381C16.7425 8.11548 17.9284 7.55197 19.1134 6.97544L19.1121 6.97508ZM15.1989 10.9122C16.0953 9.80133 17.5677 9.56219 18.6477 8.70264C17.9196 8.7204 15.3708 9.66766 15.1274 10.2706C15.0928 10.3568 14.9952 10.8948 15.1989 10.9122ZM15.3939 13.387L17.3825 12.3528C16.6546 12.3008 15.711 12.7168 15.3939 13.387ZM13.1754 16.3481L14.255 17.3529L15.4817 16.2021L14.3271 14.9565C14.1317 15.1792 13.1081 16.1635 13.1754 16.3481ZM8.08881 12.433C7.60359 16.6261 13.4222 16.9638 13.8083 12.784C13.8875 11.9321 13.3703 11.1388 12.7972 10.5584C12.3871 10.3805 12.6697 10.9531 12.5331 11.0633C12.4223 11.1519 11.5361 11.1631 11.0778 11.4723C9.50016 12.5379 9.79599 14.8075 11.9269 14.5975C11.3126 16.097 9.3776 15.3979 8.65883 14.293C8.24975 13.6653 8.43152 13.0316 8.08881 12.433ZM10.3119 19.0074L11.0078 17.4855C10.6991 17.2805 10.5452 17.7892 10.4601 17.9944C10.3796 18.1879 10.0815 18.8561 10.3123 19.006L10.3119 19.0074ZM12.2973 10.5659C12.5575 10.4417 12.2465 10.2347 12.127 10.1644C10.9661 9.47831 8.74497 10.2681 8.56938 11.7067L9.41938 10.7473C9.87681 10.3354 10.741 10.0819 11.3481 10.18C11.6845 10.2342 12.2511 10.5892 12.2969 10.5673L12.2973 10.5659ZM8.9983 19.6535L9.87147 17.4668C9.59087 17.3378 9.59917 17.4183 9.47036 17.6375C9.25787 17.998 8.91901 18.8233 8.86261 19.2242C8.84663 19.3367 8.81888 19.6469 8.9983 19.6535ZM7.55021 20.2638C7.52857 19.1342 9.04024 17.9 8.64448 16.8885C8.60416 16.7837 8.62107 16.482 8.3843 16.6409C8.19829 16.765 7.588 18.945 7.51076 19.3332C7.47075 19.5404 7.32785 20.1303 7.55021 20.2638ZM6.0057 20.7073L6.63087 18.3817C6.69856 17.9654 7.99752 16.2328 7.95048 16.1106C7.93386 16.0663 7.37016 15.6423 7.36739 15.3766C6.35802 16.5043 5.86908 18.0259 5.82053 19.5227L6.0057 20.7073Z" fill="#1D1813"/>
<path d="M144.893 26.5498C142.763 24.6688 142.029 21.7775 143.458 19.2091C144.587 17.1802 146.806 16.3075 149.048 16.813C150.798 17.2085 152.216 18.7939 152.739 20.4839C153.343 22.4346 152.914 24.8834 151.289 26.2495C150.681 26.7607 148.456 27.5798 147.663 27.5158C147.135 27.4734 145.255 26.8681 144.893 26.5489V26.5498ZM146.916 17.7564C145.342 18.0257 144.958 20.2325 145.045 21.5506C145.138 22.992 145.985 25.5651 147.413 26.1601C148.391 26.5677 149.289 26.418 149.915 25.5415C150.75 24.3713 150.687 22.5664 150.38 21.2295C150.026 19.6808 148.845 17.426 146.915 17.7555L146.916 17.7564ZM152.334 20.9339C152.415 20.8445 151.646 18.9201 151.2 18.8636L152.099 20.7484C152.078 20.8529 152.233 21.045 152.334 20.9339ZM143.253 21.4988C143.571 21.1853 143.494 20.5093 143.629 20.0875C143.472 20.1704 143.327 20.5818 143.293 20.74C143.239 20.9932 143.242 21.2427 143.253 21.4988ZM144.575 25.453L143.725 23.8534L144.049 24.8938L144.574 25.453H144.575Z" fill="#1D1813"/>
<path d="M106.906 16.6266C107.442 16.6012 108.838 16.9392 109.356 17.1472C110.263 17.5116 111.556 19.3682 111.888 20.2767C112.53 22.0317 112.347 23.7122 111.31 25.2543C110.532 26.4114 109.594 26.9217 108.25 27.2926C107.202 27.5826 106.487 27.4904 105.46 27.1439C104.523 26.8276 103.851 26.2627 103.234 25.4982C100.604 22.2425 102.517 16.8375 106.905 16.6266H106.906ZM106.236 17.7564C104.564 18.0445 104.246 20.4528 104.371 21.8273C104.534 23.6256 105.918 27.0526 108.27 26.2758C110.256 25.6196 109.967 21.7699 109.389 20.2231C108.919 18.9662 107.742 17.4975 106.236 17.7564ZM111.463 20.8397C111.435 20.4443 111.288 20.0753 111.121 19.7222C111.06 19.5951 110.511 18.6 110.329 18.7694C110.846 19.3127 110.941 20.0329 111.232 20.6524C111.298 20.7927 111.216 20.8859 111.463 20.8397ZM102.76 21.5929C102.69 21.0045 103.008 20.4801 103.043 19.8992C102.862 20.0178 102.736 20.4264 102.69 20.6279C102.643 20.8294 102.584 21.2493 102.57 21.4526C102.558 21.64 102.591 21.5995 102.76 21.592V21.5929ZM111.371 24.0408C111.752 23.8591 111.714 23.2819 111.747 22.9119C111.62 22.9101 111.546 23.1906 111.513 23.2904C111.439 23.5211 111.401 23.7998 111.371 24.0417V24.0408ZM103.8 25.2647C103.849 25.212 103.282 24.3063 103.14 24.23C103.047 24.4174 103.644 25.4323 103.8 25.2647Z" fill="#1D1813"/>
<path d="M90.651 27.8999C88.8138 26.4971 89.6785 24.9201 91.406 23.9946C89.6208 22.9468 88.8488 21.1608 89.7021 19.1903C90.774 16.716 93.9083 16.1728 96.2668 16.9618C97.1987 16.3555 97.404 15.0779 98.6585 15.0082C99.8382 14.9423 99.5336 16.5343 98.7237 17.0597C98.5166 17.1943 97.5856 17.4739 97.5572 17.5944C98.0218 18.2384 98.5478 18.5463 98.8325 19.3371C99.947 22.4346 96.7588 24.472 94.0048 24.5162C93.142 24.5303 92.4353 23.972 91.6908 24.841C91.0578 25.5791 91.9386 26.0875 92.616 26.1836C94.545 26.4557 98.8524 25.6563 99.9423 27.6485C100.348 28.3904 100.354 29.234 100.003 30.0069C99.8741 30.2894 99.0681 31.0614 98.7767 31.2346C96.8572 32.3766 93.3776 32.4953 91.2348 31.9831C88.547 31.3419 88.0494 29.0984 90.652 27.9018L90.651 27.8999ZM94.0398 17.6622C90.6624 17.7903 91.055 23.5823 94.2848 23.4683C97.5118 23.3544 97.264 17.5398 94.0398 17.6622ZM97.1779 21.688C97.2233 21.6456 97.403 20.6307 97.3671 20.4641C97.0199 20.7362 97.1703 21.2935 96.9915 21.6428C96.9783 21.7219 97.1703 21.6946 97.1779 21.688ZM98.5033 21.029C98.3368 20.9885 98.1012 21.3453 98.0322 21.4526C97.8089 21.7982 97.7446 21.9149 97.842 22.3461C98.2734 22.0335 98.3415 21.4903 98.5033 21.029ZM91.8563 28.2068C90.5895 28.8941 90.6614 29.9843 91.9112 30.6481C93.1609 31.3118 95.1581 31.2318 96.5365 30.8863C98.7455 30.3317 98.9338 28.5024 96.4428 28.3038L91.8563 28.2068Z" fill="#1D1813"/>
<path d="M85.1024 26.5216C85.0059 26.6072 84.987 26.7372 84.8205 26.852C83.8763 27.5082 82.1706 27.5854 81.075 27.3096C75.9938 26.0339 76.6692 16.9354 82.1015 16.5212C84.3191 16.3517 86.6227 18.1189 86.5924 20.417C86.5811 21.3001 85.6189 20.9066 85.0172 20.9292C84.7486 20.9395 84.5158 21.0243 84.2689 21.0308C83.6748 21.0469 80.041 20.9424 79.8603 21.0676C79.6446 21.2173 79.9294 22.4346 80.0088 22.7199C80.5869 24.8109 82.5641 26.177 84.7268 25.3457C85.1374 25.1875 86.004 24.3759 86.301 24.4531C86.5631 24.5209 86.6558 24.7252 86.5357 24.9785C86.3777 25.3099 85.4146 26.2401 85.1024 26.5187V26.5216ZM84.1232 20.0865C84.4364 18.164 82.1119 16.6181 80.6777 18.3053C80.4364 18.5896 79.9 19.6224 79.8811 19.9651C79.8603 20.3342 80.2416 20.0865 80.2926 20.0865H84.1242H84.1232ZM78.2567 22.3461L78.5405 19.8992L78.1744 21.0864C78.2633 21.4724 77.902 22.0928 78.2567 22.3461ZM80.4327 24.8881C80.4847 24.4748 80.4355 24.165 79.9606 24.1349C80.0599 24.5539 79.7761 24.3025 79.6768 24.5106L80.4327 24.8881ZM83.1772 26.6779C82.8735 26.7089 82.3314 26.5611 82.1375 26.8643C82.5036 26.7984 82.9766 27.0949 83.1772 26.6779Z" fill="#1D1813"/>
<path d="M117.234 21.028C117.165 22.7914 117.77 24.5981 119.505 25.3127C120.454 25.7034 121.724 25.6196 122.62 25.1169C122.851 24.987 123.291 24.4625 123.54 24.4381C123.841 24.4089 124.038 24.68 123.902 24.9794C123.722 25.3748 122.402 26.7061 121.995 26.9433C121.049 27.4941 119.509 27.5704 118.462 27.2917C112.508 25.711 114.693 14.7295 121.211 16.7415C122.552 17.1557 123.529 18.325 123.846 19.6742C124.256 21.4187 123.461 20.8802 122.291 20.9301C122.023 20.9414 121.789 21.0252 121.543 21.0318C120.109 21.0704 118.667 20.9951 117.233 21.0271L117.234 21.028ZM119.486 17.5643C118.789 17.6246 118.141 18.132 117.784 18.7035C117.643 18.9304 117.077 19.967 117.329 20.1374C118.535 19.9312 119.992 20.2466 121.166 20.0913C121.76 20.0122 121.589 19.5734 121.442 19.1479C121.18 18.3872 120.367 17.4881 119.486 17.5634V17.5643ZM123.29 19.71C123.183 19.2665 123.041 18.7506 122.629 18.487C122.703 18.7129 122.778 19.0236 122.875 19.2298C122.936 19.3625 123.087 19.7646 123.29 19.71ZM115.626 22.3461C115.659 21.4884 115.789 20.6326 116.004 19.8041C115.676 20.0395 115.603 20.6957 115.545 21.0873C115.494 21.4225 115.306 22.1719 115.626 22.3452V22.3461ZM118.369 25.6413C118.484 25.5019 117.848 25.019 117.755 24.889C117.704 25.2732 117.36 25.3306 117.046 25.4549C117.34 25.8484 117.957 25.3391 118.369 25.6422L118.369 25.6413ZM120.64 26.6779C120.382 26.6986 120.086 26.6449 119.835 26.6769C119.471 26.723 119.746 26.9518 120.076 26.9189C120.19 26.9076 120.614 26.8266 120.641 26.6779H120.64Z" fill="#1D1813"/>
<path d="M74.0241 19.2166C73.9333 19.1169 73.9399 18.9041 73.851 18.776C72.9418 17.4693 71.5908 18.9163 71.4565 20.0499C71.3855 20.6458 71.5454 21.2248 71.5454 21.833C71.5454 22.8489 71.3562 24.1124 71.4622 25.099C71.4801 25.2638 71.711 25.9426 71.8217 26.0678C72.1774 26.4689 73.0128 26.1328 73.1339 26.7466C73.3098 27.6429 71.7526 27.0582 71.395 27.0498C70.6741 27.0338 69.8397 27.1439 69.0346 27.1392C68.694 27.1373 67.8426 27.4819 67.8426 26.8182C67.8426 26.1139 68.8369 26.6233 69.1964 25.8955C69.4991 25.2807 69.3827 22.8414 69.3695 22.0119C69.3667 21.8076 69.2721 21.6231 69.2673 21.4461C69.2484 20.7334 69.449 19.7185 69.2257 19.0481C68.8454 17.9071 67.6411 18.5868 67.607 17.875C67.5767 17.2358 68.5881 17.3695 69.08 17.2113C69.7309 17.0013 70.658 16.1088 71.308 16.6012C71.693 16.8931 71.5303 17.426 71.5142 17.8477C71.5123 17.8929 71.4253 18.1198 71.5899 18.1066C71.6599 18.101 72.2994 17.2546 72.536 17.0729C73.3401 16.4543 74.2795 16.1597 75.2549 16.5325C77.0524 17.2198 76.1035 19.6253 74.5302 19.4228C74.4309 19.4097 74.0828 19.2778 74.026 19.2157L74.0241 19.2166ZM75.5123 17.6397C75.5047 17.6321 75.3126 17.6048 75.3268 17.6849C75.674 18.3345 74.5936 18.0935 74.6636 18.6753C74.85 18.5727 74.956 18.7817 75.1367 18.7346C75.5444 18.6282 75.7696 17.8797 75.5123 17.6397ZM70.9721 20.7456C70.9144 20.4048 71.1396 19.8239 70.7848 19.6168C70.7829 19.8484 70.7706 20.08 70.7952 20.3116C70.8056 20.4086 70.833 20.7541 70.9721 20.7456ZM70.7839 23.3818V24.794L70.974 23.8045L70.7839 23.3818Z" fill="#1D1813"/>
<path d="M136.889 16.6276C137.203 16.9571 136.854 18.0369 136.914 18.1094C137.135 18.1706 137.074 18.053 137.13 17.9899C137.434 17.6462 137.725 17.2555 138.093 16.9778C138.952 16.331 140.293 16.0617 141.175 16.8347C142.428 17.9334 140.815 19.9915 139.621 19.323C139.13 19.0481 139.187 17.7846 137.964 18.3561C137.254 18.6885 136.93 19.581 136.909 20.3182C136.875 21.5524 136.971 22.9496 137.008 24.1839C137.025 24.7742 136.869 25.6846 137.353 26.0998C137.721 26.4152 138.427 26.2005 138.581 26.7701C138.719 27.2776 137.879 27.2672 137.551 27.2211C136.606 27.0883 135.574 27.1448 134.595 27.1411C134.273 27.1401 133.004 27.4762 133.366 26.6807C133.571 26.2316 134.322 26.5931 134.663 25.8983C135.005 25.2035 134.743 24.5529 134.757 23.9014C134.787 22.5335 134.861 21.1259 134.836 19.7646C134.827 19.2995 134.585 18.4945 134.082 18.342C133.75 18.2412 133.193 18.4418 133.128 17.9645C133.04 17.3224 133.939 17.4222 134.412 17.2687C135.049 17.0616 136.361 16.074 136.889 16.6294L136.889 16.6276ZM140.98 17.827C140.683 17.7667 140.842 18.0539 140.657 18.2092C140.471 18.3646 139.946 18.3382 140.368 18.7685C140.809 18.6442 141.151 18.3062 140.98 17.827ZM136.44 23.0993C136.219 23.0871 136.273 23.0673 136.251 23.2386C136.208 23.5691 136.237 24.0888 136.296 24.4202C136.314 24.52 136.304 24.7243 136.44 24.6998V23.0993Z" fill="#1D1813"/>
<path d="M131.12 26.5112C131.297 26.6826 131.297 27.0921 131.079 27.2268C130.653 27.4894 130.293 27.1505 129.864 27.1401C129.436 27.1298 128.937 27.3322 128.54 27.336C128.222 27.3397 127.798 27.2371 127.4 27.2381C127.129 27.2381 126.193 27.4668 126.045 27.2305C125.983 27.1326 126.057 26.6854 126.151 26.6054C126.368 26.4199 126.98 26.6261 127.304 26.1055C127.363 26.0113 127.495 25.6517 127.509 25.5481C127.59 24.9446 127.446 23.6689 127.449 22.9543C127.451 22.4177 127.456 21.9008 127.449 21.3613C127.439 20.6675 127.612 19.178 127.221 18.6696C126.759 18.0699 126.122 18.4964 125.836 18.0643C125.445 17.4749 126.798 17.2876 127.122 17.1689C127.512 17.0258 128.672 16.4553 128.943 16.4317C130.078 16.3329 129.636 17.8496 129.625 18.4343C129.596 19.8474 129.615 21.2851 129.632 22.6709C129.642 23.3978 129.477 25.7242 129.998 26.1667C130.297 26.4199 130.941 26.3361 131.12 26.5094V26.5112ZM128.966 21.2164C129.028 21.2239 129.155 21.0911 129.155 21.0751V19.2863C129.155 19.2411 129.039 18.9963 128.966 19.0509V21.2164Z" fill="#1D1813"/>
<path d="M129.511 12.0048C130.277 11.9201 129.597 13.419 129.345 13.7315C129.128 13.9998 127.701 14.7916 127.332 14.931C127.215 14.9752 127.097 15.0552 126.979 14.9583C126.835 14.8491 126.879 14.77 126.936 14.6297C127.087 14.254 127.402 13.7786 127.569 13.3756C127.689 13.0847 127.637 12.806 127.832 12.5076C128.169 11.9935 128.343 12.2882 128.708 12.2506C128.975 12.2233 129.293 12.0284 129.513 12.0048H129.511Z" fill="#1D1813"/>
<path d="M56.7822 19.8983C56.6971 20.6458 56.8058 21.3707 56.785 22.1145C56.7585 23.0927 56.5693 24.375 56.7444 25.34C56.9913 26.7052 58.3848 26.1563 58.7453 26.5103C58.8806 26.644 58.8881 27.0394 58.7784 27.1863C58.504 27.5534 55.5561 27.126 54.9317 27.1439C54.3754 27.1599 52.6441 27.6476 52.3244 27.1768C52.1986 26.9923 52.3584 26.6609 52.5249 26.5357C52.9895 26.1845 53.7056 26.6769 54.137 25.7863C54.4246 25.1931 54.2231 25.0086 54.2222 24.4682C54.2203 21.3331 54.3385 18.2412 54.3253 15.1466C54.3215 14.1891 54.5514 12.2751 53.3064 12.0105C52.9545 11.9361 52.3244 12.084 52.3357 11.4795C52.3518 10.6378 53.8541 11.2291 54.278 11.2385C55.0291 11.2555 56.0556 11.0559 56.8238 11.0427C58.3876 11.0154 60.0281 11.0634 61.5541 11.1359C63.2854 11.2178 64.8558 12.9972 65.326 14.5459C65.853 16.283 64.6714 18.5331 63.1227 19.3833C62.1435 19.9208 60.2079 20.3031 59.0953 20.2786C58.3271 20.2617 57.5362 19.9933 56.7803 19.8964L56.7822 19.8983ZM56.8011 18.937C59.17 19.7504 62.432 18.824 62.6459 15.9902C62.8549 13.2203 60.6743 11.8166 58.0849 12.1103C57.5665 12.1687 56.8806 12.2779 56.7869 12.8899C56.575 14.272 56.5826 16.8356 56.6838 18.2544C56.6999 18.486 56.7576 18.712 56.8011 18.937ZM54.9837 13.403C54.8674 13.2505 54.8125 13.4049 54.7945 13.5423C54.751 13.8784 54.8248 14.2814 54.7955 14.6269C55.1607 14.3953 54.9175 13.7702 54.9828 13.4039L54.9837 13.403ZM63.2144 16.6031L63.5569 15.1438L62.9335 13.8737L63.2144 15.2398V16.6031ZM64.1605 15.4733C64.222 15.3961 64.1737 14.4066 63.8786 14.3445C64.0791 14.6759 63.6723 15.4545 64.1605 15.4733ZM55.0784 19.7109C54.8068 19.6657 54.9222 19.7693 54.8768 19.9284C54.8172 20.1402 54.7605 20.7983 54.8901 20.9348C55.0197 21.0713 55.0623 20.9254 55.0784 20.7955C55.1209 20.4594 55.0481 20.0574 55.0784 19.7118V19.7109ZM56.12 25.2647V23.8995C56.12 23.8835 55.9922 23.7517 55.9317 23.7583C55.9497 24.1716 55.891 24.5962 55.9544 25.0067C55.9676 25.0915 55.9951 25.2901 56.12 25.2647Z" fill="#1D1813"/>
<path d="M19.0985 35.0003C18.8366 36.5369 17.8782 38.7009 16.4482 39.4456C16.2652 39.2614 16.3629 39.1208 16.3729 38.9298C16.4628 37.0509 17.7465 34.9981 19.1193 33.7553C19.3082 33.7957 19.132 34.8013 19.0985 35.0003Z" fill="#1D1813"/>
<path d="M21.6392 38.9819C21.1585 37.5432 20.8115 36.2654 21.6086 34.8447C22.0057 35.4108 22.2786 36.2798 22.3129 36.9641C22.3404 37.4828 22.3649 39.1643 21.6375 38.9829L21.6392 38.9819Z" fill="#1D1813"/>
<path d="M32.4832 18.8044L34.0724 18.5238C34.421 18.644 36.1818 19.3065 35.1866 19.4951C34.1673 19.6886 33.3397 19.291 32.4815 18.8054L32.4832 18.8044Z" fill="#1D1813"/>
<path d="M31.1751 9.34099C31.6395 9.08899 31.5157 10.7224 31.4629 10.9134C31.4068 11.122 30.8714 12.1056 30.6597 12.0491C30.1806 11.0609 30.7146 10.205 31.1751 9.34099Z" fill="#1D1813"/>
</svg>
